<svg width="50" height="50" viewBox="0 0 50 50" fill="none" xmlns="http://www.w3.org/2000/svg">
<g clip-path="url(#clip0_36_38)">
<path d="M24.8218 0C11.1436 0 0.0544434 11.0891 0.0544434 24.7673C0.0544434 38.4455 11.1436 49.5347 24.8218 49.5347C38.5 49.5347 49.5891 38.4455 49.5891 24.7673C49.5891 11.0891 38.5 0 24.8218 0ZM22.4356 33.8762C22.4356 35.2525 21.3218 36.3663 19.9455 36.3663C18.5693 36.3663 17.4554 35.2525 17.4554 33.8762V15.6287C17.4554 14.2525 18.5693 13.1386 19.9455 13.1386C21.3218 13.1386 22.4356 14.2525 22.4356 15.6287V33.8762ZM32.0445 33.8762C32.0445 35.2525 30.9307 36.3663 29.5544 36.3663C28.1782 36.3663 27.0643 35.2525 27.0643 33.8762V15.6287C27.0643 14.2525 28.1782 13.1386 29.5544 13.1386C30.9307 13.1386 32.0445 14.2525 32.0445 15.6287V33.8762Z" fill="black"/>
</g>
<defs>
<clipPath id="clip0_36_38">
<rect width="50" height="50" fill="white"/>
</clipPath>
</defs>
</svg>
