<svg width="32" height="27" viewBox="0 0 32 27" fill="none" xmlns="http://www.w3.org/2000/svg">
<path d="M5.13528 18.3225H9.20789L15.6396 23.8343C15.7859 23.9477 15.9668 24 16.139 24C16.2767 24 16.4145 23.9651 16.535 23.9041C16.8192 23.7558 17 23.4506 17 23.1279V3.87136C17 3.54868 16.8192 3.24346 16.535 3.09522C16.2509 2.94692 15.9065 2.97311 15.6396 3.16495L9.20789 8.67678H5.13528C3.9557 8.67678 3 9.65356 3 10.8397V16.1596C3 17.3457 3.95571 18.3225 5.13528 18.3225Z" fill="black" fill-opacity="0.5"/>
<path d="M15.1656 24.4158L15.1516 24.4038L8.93048 19.0725H5.13528C3.53051 19.0725 2.25 17.7488 2.25 16.1596V10.8397C2.25 9.25044 3.53048 7.92678 5.13528 7.92678H8.93048L15.1516 2.59546L15.1759 2.57463L15.2019 2.55594C15.6929 2.20303 16.3403 2.14763 16.8819 2.43027L15.1656 24.4158ZM15.1656 24.4158L15.1803 24.4272M15.1656 24.4158L15.1803 24.4272M15.1803 24.4272C15.4738 24.6546 15.8215 24.75 16.139 24.75C16.4004 24.75 16.6538 24.6847 16.874 24.5731L16.874 24.5731M15.1803 24.4272L16.874 24.5731M16.874 24.5731L16.8819 24.569M16.874 24.5731L16.8819 24.569M16.8819 24.569C17.4207 24.288 17.75 23.7222 17.75 23.1279M16.8819 24.569L17.75 23.1279M17.75 23.1279V3.87136M17.75 23.1279V3.87136M17.75 3.87136C17.75 3.27705 17.4207 2.71142 16.8821 2.43035L17.75 3.87136Z" stroke="white" stroke-opacity="0.5" stroke-width="1.5"/>
<path d="M21.332 17.9078C21.5273 18.1031 21.7832 18.2008 22.0391 18.2008C22.2949 18.2008 22.5508 18.1031 22.7461 17.9083C23.7861 16.8683 24.3594 15.4806 24.3594 14.0001C24.3594 12.5197 23.7861 11.132 22.7461 10.0919C22.3555 9.70227 21.7226 9.70178 21.332 10.0924C20.9414 10.483 20.9414 11.1163 21.332 11.507C21.9941 12.1686 22.3594 13.0543 22.3594 14.0001C22.3594 14.9459 21.9941 15.8317 21.332 16.4933C20.9414 16.8839 20.9414 17.5172 21.332 17.9078Z" fill="black" fill-opacity="0.5"/>
<path d="M23.2758 18.4393L23.2764 18.4387C24.458 17.2571 25.1094 15.6783 25.1094 14.0001C25.1094 12.322 24.458 10.7432 23.2764 9.56159L23.2758 9.56093C22.5928 8.87963 21.4856 8.87819 20.8017 9.56209C20.1182 10.2456 20.1182 11.3538 20.8017 12.0373L20.8019 12.0375C21.3217 12.5569 21.6094 13.2512 21.6094 14.0001C21.6094 14.749 21.3217 15.4433 20.8019 15.9628L20.8017 15.963C20.1182 16.6465 20.1182 17.7546 20.8017 18.4382C21.1432 18.7797 21.5923 18.9508 22.0391 18.9508C22.4857 18.9508 22.9344 18.7798 23.2758 18.4393Z" stroke="white" stroke-opacity="0.5" stroke-width="1.5"/>
<path d="M25.3184 6.10595C24.9277 6.49609 24.9277 7.12939 25.3184 7.52001C27.0479 9.24999 28 11.5513 28 14C28 16.438 27.0469 18.7397 25.3164 20.4824C24.9268 20.874 24.9287 21.5073 25.3203 21.8965C25.5156 22.0903 25.7705 22.187 26.0254 22.187C26.2822 22.187 26.5391 22.0884 26.7344 21.8916C28.8408 19.772 30 16.9692 30 14C30 11.0171 28.8398 8.21337 26.7324 6.10595C26.3418 5.71533 25.709 5.71533 25.3184 6.10595Z" fill="black" fill-opacity="0.5"/>
<path d="M24.792 22.4288L24.7917 22.4285C24.1062 21.7473 24.1028 20.6391 24.7845 19.9537C26.3765 18.3503 27.25 16.2382 27.25 14C27.25 11.7499 26.3767 9.63946 24.788 8.05034L24.792 22.4288ZM24.792 22.4288C25.1334 22.7677 25.5807 22.937 26.0254 22.937C26.4741 22.937 26.9248 22.7642 27.2664 22.4203C29.5116 20.161 30.75 17.1686 30.75 14C30.75 10.8185 29.511 7.8239 27.2628 5.57562C26.5793 4.89222 25.4719 4.89211 24.7884 5.5753L24.792 22.4288ZM24.788 5.57562C24.1043 6.25891 24.1048 7.36704 24.788 8.05027L24.788 5.57562Z" stroke="white" stroke-opacity="0.5" stroke-width="1.5"/>
</svg>
