<svg width="32" height="27" viewBox="0 0 32 27" fill="none" xmlns="http://www.w3.org/2000/svg">
<path d="M5.13528 18.3225H9.20789L15.6396 23.8343C15.7859 23.9477 15.9668 24 16.139 24C16.2767 24 16.4145 23.9651 16.535 23.9041C16.8192 23.7558 17 23.4506 17 23.1279V3.87136C17 3.54868 16.8192 3.24346 16.535 3.09522C16.2509 2.94692 15.9065 2.97311 15.6396 3.16495L9.20789 8.67678H5.13528C3.9557 8.67678 3 9.65356 3 10.8397V16.1596C3 17.3457 3.95571 18.3225 5.13528 18.3225Z" fill="black" fill-opacity="0.5"/>
<path d="M15.1656 24.4158L15.1516 24.4038L8.93048 19.0725H5.13528C3.53051 19.0725 2.25 17.7488 2.25 16.1596V10.8397C2.25 9.25044 3.53048 7.92678 5.13528 7.92678H8.93048L15.1516 2.59546L15.1759 2.57463L15.2019 2.55594C15.6929 2.20303 16.3403 2.14763 16.8819 2.43027L15.1656 24.4158ZM15.1656 24.4158L15.1803 24.4272M15.1656 24.4158L15.1803 24.4272M15.1803 24.4272C15.4738 24.6546 15.8215 24.75 16.139 24.75C16.4004 24.75 16.6538 24.6847 16.874 24.5731L16.874 24.5731M15.1803 24.4272L16.874 24.5731M16.874 24.5731L16.8819 24.569M16.874 24.5731L16.8819 24.569M16.8819 24.569C17.4207 24.288 17.75 23.7222 17.75 23.1279M16.8819 24.569L17.75 23.1279M17.75 23.1279V3.87136M17.75 23.1279V3.87136M17.75 3.87136C17.75 3.27705 17.4207 2.71142 16.8821 2.43035L17.75 3.87136Z" stroke="white" stroke-opacity="0.5" stroke-width="1.5"/>
<path d="M21.2445 9.24243C21.4067 9.08025 21.619 9 21.8313 9C22.0453 9 22.2576 9.08025 22.4198 9.2441L25.4992 12.3221L28.5786 9.24243C28.7407 9.08193 28.9531 9 29.1654 9H29.167C29.381 9 29.5933 9.08025 29.7555 9.2441C30.0815 9.56845 30.0815 10.0951 29.7555 10.4195L26.6761 13.4992L29.7555 16.5789C30.0815 16.9049 30.0815 17.4315 29.7555 17.7559C29.5933 17.9197 29.381 18 29.167 18C28.9547 18 28.7424 17.9197 28.5786 17.7559L25.4992 14.6762L22.4214 17.7559C22.2576 17.9197 22.0453 18 21.833 18C21.619 18 21.4067 17.9197 21.2445 17.7559C20.9185 17.4316 20.9185 16.9049 21.2445 16.5789L24.3222 13.4992L21.2445 10.4211C20.9185 10.0951 20.9185 9.56846 21.2445 9.24243Z" fill="black" fill-opacity="0.5"/>
<path d="M22.7751 18.1093L25.4993 15.3834L28.225 18.1094C28.4866 18.371 28.8278 18.5 29.167 18.5C29.5063 18.5 29.8484 18.3721 30.1095 18.109C30.6311 17.5886 30.6294 16.7456 30.1091 16.2253L27.3832 13.4992L30.1082 10.7739C30.1084 10.7737 30.1086 10.7735 30.1088 10.7733C30.6302 10.2539 30.6304 9.41071 30.1095 8.89099C29.8484 8.6279 29.5063 8.5 29.167 8.5H29.1654C28.8246 8.5 28.4849 8.63161 28.2268 8.88707L28.225 8.88889L25.4991 11.6151L22.7751 8.89238C22.7748 8.89202 22.7744 8.89166 22.7741 8.8913C22.5129 8.628 22.1707 8.5 21.8313 8.5C21.4929 8.5 21.1514 8.62842 20.8909 8.88889C20.3697 9.41018 20.3697 10.2534 20.8909 10.7747C20.8909 10.7747 20.8909 10.7747 20.8909 10.7747L23.6153 13.4993L20.8909 16.2253C20.8909 16.2254 20.8909 16.2254 20.8908 16.2254C20.3706 16.7458 20.3689 17.5886 20.8905 18.109C21.1516 18.3721 21.4937 18.5 21.833 18.5C22.1722 18.5 22.5134 18.371 22.775 18.1094L22.7751 18.1093Z" stroke="white" stroke-opacity="0.5"/>
</svg>
